REM DIRINDEX 1\5,1\2\6,1\2\7,1\3\8,1\3\9,1\4\10,1\4\11,1\4\12
REM DIRNAME cjc026,folder01,folder02,folder03,folder04,folder05,folder06,folder07,folder08,folder09,folder10,folder11
TITLE ""
FILE "EJ_DB3000_5th_6C_50.mp3" MP3
  TRACK 01 AUDIO
    TITLE "0:"
    INDEX 01 00:00:00
  TRACK 02 AUDIO
    TITLE "9:cjc026_06899"
    INDEX 01 00:00:08
  TRACK 03 AUDIO
    TITLE "0:"
    INDEX 01 00:01:24
  TRACK 04 AUDIO
    TITLE "8:cjc026_06900"
    INDEX 01 00:01:62
  TRACK 05 AUDIO
    TITLE "0:"
    INDEX 01 00:03:09
  TRACK 06 AUDIO
    TITLE "9:cjc026_06901"
    INDEX 01 00:03:45
  TRACK 07 AUDIO
    TITLE "0:"
    INDEX 01 00:04:64
  TRACK 08 AUDIO
    TITLE "8:cjc026_06902"
    INDEX 01 00:05:27
  TRACK 09 AUDIO
    TITLE "0:"
    INDEX 01 00:06:63
  TRACK 10 AUDIO
    TITLE "9:cjc026_06903"
    INDEX 01 00:07:23
  TRACK 11 AUDIO
    TITLE "0:"
    INDEX 01 00:08:61
  TRACK 12 AUDIO
    TITLE "8:cjc026_06904"
    INDEX 01 00:09:21
  TRACK 13 AUDIO
    TITLE "0:"
    INDEX 01 00:10:57
  TRACK 14 AUDIO
    TITLE "9:cjc026_06905"
    INDEX 01 00:11:20
  TRACK 15 AUDIO
    TITLE "0:"
    INDEX 01 00:12:74
  TRACK 16 AUDIO
    TITLE "8:cjc026_06906"
    INDEX 01 00:13:34
  TRACK 17 AUDIO
    TITLE "0:"
    INDEX 01 00:15:14
  TRACK 18 AUDIO
    TITLE "9:cjc026_06907"
    INDEX 01 00:15:49
  TRACK 19 AUDIO
    TITLE "0:"
    INDEX 01 00:17:07
  TRACK 20 AUDIO
    TITLE "8:cjc026_06908"
    INDEX 01 00:17:42
  TRACK 21 AUDIO
    TITLE "0:"
    INDEX 01 00:19:51
  TRACK 22 AUDIO
    TITLE "9:cjc026_06909"
    INDEX 01 00:20:12
  TRACK 23 AUDIO
    TITLE "0:"
    INDEX 01 00:21:34
  TRACK 24 AUDIO
    TITLE "8:cjc026_06910"
    INDEX 01 00:21:69
  TRACK 25 AUDIO
    TITLE "0:"
    INDEX 01 00:23:38
  TRACK 26 AUDIO
    TITLE "9:cjc026_06911"
    INDEX 01 00:23:73
  TRACK 27 AUDIO
    TITLE "0:"
    INDEX 01 00:25:31
  TRACK 28 AUDIO
    TITLE "8:cjc026_06912"
    INDEX 01 00:25:69
  TRACK 29 AUDIO
    TITLE "0:"
    INDEX 01 00:28:03
  TRACK 30 AUDIO
    TITLE "9:cjc026_06913"
    INDEX 01 00:28:38
  TRACK 31 AUDIO
    TITLE "0:"
    INDEX 01 00:30:15
  TRACK 32 AUDIO
    TITLE "8:cjc026_06914"
    INDEX 01 00:30:50
  TRACK 33 AUDIO
    TITLE "0:"
    INDEX 01 00:32:51
  TRACK 34 AUDIO
    TITLE "9:cjc026_06915"
    INDEX 01 00:33:11
  TRACK 35 AUDIO
    TITLE "0:"
    INDEX 01 00:34:71
  TRACK 36 AUDIO
    TITLE "8:cjc026_06916"
    INDEX 01 00:35:31
  TRACK 37 AUDIO
    TITLE "0:"
    INDEX 01 00:38:39
  TRACK 38 AUDIO
    TITLE "9:cjc026_06917"
    INDEX 01 00:38:74
  TRACK 39 AUDIO
    TITLE "0:"
    INDEX 01 00:40:37
  TRACK 40 AUDIO
    TITLE "8:cjc026_06918"
    INDEX 01 00:40:72
  TRACK 41 AUDIO
    TITLE "0:"
    INDEX 01 00:44:02
  TRACK 42 AUDIO
    TITLE "9:cjc026_06919"
    INDEX 01 00:44:37
  TRACK 43 AUDIO
    TITLE "0:"
    INDEX 01 00:46:08
  TRACK 44 AUDIO
    TITLE "8:cjc026_06920"
    INDEX 01 00:46:43
  TRACK 45 AUDIO
    TITLE "0:"
    INDEX 01 00:48:20
  TRACK 46 AUDIO
    TITLE "9:cjc026_06921"
    INDEX 01 00:48:55
  TRACK 47 AUDIO
    TITLE "0:"
    INDEX 01 00:50:13
  TRACK 48 AUDIO
    TITLE "8:cjc026_06922"
    INDEX 01 00:50:51
  TRACK 49 AUDIO
    TITLE "0:"
    INDEX 01 00:51:60
  TRACK 50 AUDIO
    TITLE "9:cjc026_06923"
    INDEX 01 00:52:20
  TRACK 51 AUDIO
    TITLE "0:"
    INDEX 01 00:53:64
  TRACK 52 AUDIO
    TITLE "8:cjc026_06924"
    INDEX 01 00:54:27
  TRACK 53 AUDIO
    TITLE "0:"
    INDEX 01 00:56:03
  TRACK 54 AUDIO
    TITLE "9:cjc026_06925"
    INDEX 01 00:56:39
  TRACK 55 AUDIO
    TITLE "0:"
    INDEX 01 00:58:72
  TRACK 56 AUDIO
    TITLE "8:cjc026_06926"
    INDEX 01 00:59:32
  TRACK 57 AUDIO
    TITLE "0:"
    INDEX 01 01:02:29
  TRACK 58 AUDIO
    TITLE "9:cjc026_06927"
    INDEX 01 01:02:64
  TRACK 59 AUDIO
    TITLE "0:"
    INDEX 01 01:05:20
  TRACK 60 AUDIO
    TITLE "8:cjc026_06928"
    INDEX 01 01:05:55
  TRACK 61 AUDIO
    TITLE "0:"
    INDEX 01 01:07:69
  TRACK 62 AUDIO
    TITLE "9:cjc026_06929"
    INDEX 01 01:08:30
  TRACK 63 AUDIO
    TITLE "0:"
    INDEX 01 01:10:63
  TRACK 64 AUDIO
    TITLE "8:cjc026_06930"
    INDEX 01 01:11:23
  TRACK 65 AUDIO
    TITLE "0:"
    INDEX 01 01:13:57
